PathFileType	4	(X/Y/Z)	pose_F01_0-96.trc
DataRate	CameraRate	NumFrames	NumMarkers	Units	OrigDataRate	OrigDataStartFrame	OrigNumFrames
30	30	5	21	m	30	12	96
Frame#	Time	CHip			RHip			RKnee			RAnkle			RBigToe			RSmallToe			RHeel			LHip			LKnee			LAnkle			LBigToe			LSmallToe			LHeel			Neck			Nose			RShoulder			RElbow			RWrist			LShoulder			LElbow			LWrist			
		X1	Y1	Z1	X2	Y2	Z2	X3	Y3	Z3	X4	Y4	Z4	X5	Y5	Z5	X6	Y6	Z6	X7	Y7	Z7	X8	Y8	Z8	X9	Y9	Z9	X10	Y10	Z10	X11	Y11	Z11	X12	Y12	Z12	X13	Y13	Z13	X14	Y14	Z14	X15	Y15	Z15	X16	Y16	Z16	X17	Y17	Z17	X18	Y18	Z18	X19	Y19	Z19	X20	Y20	Z20	X21	Y21	Z21	
12	0.4	-0.21516935595774528	1.8705131127399064	-0.5901813362887263	-0.23289634409219237	1.8669903592152846	-0.5194304604879233	-0.21724735716747479	1.7191576120278773	-0.5096030635831391	-0.21688175778854585	1.5624462110121298	-0.4935769224999111	-0.26245050727524505	1.5272020408326947	-0.5141873506013067				-0.20385120355487615	1.5504241465965263	-0.4843228519399637	-0.20063572727386106	1.8732582533964313	-0.6479211407164089	-0.1873063132015043	1.7242218726971876	-0.6249706126162481	-0.1823467926789063	1.5699423246507258	-0.6081432656925678	-0.21835639533719298	1.5287968450469678	-0.642500387908392	-0.20143689521416855	1.535794820322049	-0.6643553124654641	-0.17769871754371602	1.5569877487920132	-0.6032126210347818	-0.20264683045740073	2.053543295340822	-0.6002318597658567	-0.2423866005797847	2.127960854579391	-0.6222437101520737	-0.2233722725829339	2.049553141367849	-0.5153859924706137	-0.23383047458219522	1.9554974133598746	-0.4821044705297895	-0.2441560705694727	1.8774282007607423	-0.46958532754776444	-0.18229941096309515	2.056505510972569	-0.6852880752057636	-1.4111569349822677	1.8749721537078183	0.6122925056775731	-0.17651716916895624	1.8849857678872355	-0.707103155911422
13	0.43333333333333335	-0.21494503675499227	1.8720051013571264	-0.5904165383885538	-0.23058774066677556	1.8696715340947494	-0.5219646930272832	-0.21705570853067294	1.7206307410072197	-0.509998574517056	-0.21707112087415742	1.560653254073255	-0.4929375283832414	-0.2660208207680941	1.524569617807205	-0.5097738457246913				-0.20577178899847295	1.5500315762999477	-0.4821465247077815	-0.19825445195855984	1.8759157354138898	-0.65037885156611	-0.18692551863671394	1.7244837728948534	-0.6253863436593095	-0.18261445880478477	1.5685514089303079	-0.6076067906969511	-0.22341743098647193	1.5269732918047487	-0.6415146187309245	-0.20604298429523185	1.5339573744157426	-0.6593395015309731	-0.1782026330778415	1.554311427755181	-0.6021170276320985	-0.2026264546326974	2.0535545192489306	-0.6002518925247917	-0.24247170353311956	2.1266913565035446	-0.622441794909321	-0.22333406141977474	2.0495065524668905	-0.5153465662087198	-0.2299709491303667	1.9551922152313983	-0.4864093145742103	-0.24423554303479594	1.8774454426265377	-0.46946934638221804	-0.18230888066530607	2.0564789044420624	-0.6853673483433218	-1.4086716559388726	1.8745192822668593	0.6097444376211894	-0.1771850418413418	1.8820646326059307	-0.7067919489905164
14	0.4666666666666667	-0.2160363325724195	1.8708004030021013	-0.593405803148355	-0.23167475861167708	1.8686225967144074	-0.5249912266273349	-0.21741412147378197	1.723526497242915	-0.5099792299732672	-0.21645931053948303	1.56252307956492	-0.48950882783019184	-0.26324391608979164	1.5287903685548494	-0.5091173988859986				-0.20445812304027924	1.5533948753169222	-0.48368591677551104	-0.20053495713698766	1.8746362373703318	-0.6481535234600618	-0.1872356045417959	1.7268798267114014	-0.6252837995900817	-0.18178599070057802	1.5685819962811829	-0.6043425053096306	-0.22124093012019158	1.5269090023096923	-0.6437215448784278	-0.20291390565984985	1.5339023754514378	-0.6583538433647179	-0.1800261389046775	1.5553690293832951	-0.6003624214220628	-0.20259008833157757	2.053530954489812	-0.6002578987373854	-0.24041795632331908	2.1279858698456704	-0.6242576042491395	-0.22143357693856972	2.0495459415860577	-0.5173985430649523	-0.22612399742745162	1.9580445185585336	-0.4917063593992349	-0.2425310856927632	1.8842994022183925	-0.47284357525815207	-0.18034979112492883	2.0552336665205515	-0.6876216842769376	-1.4042922253444605	1.876050067104739	0.5998775626885311	-0.17771731235352636	1.8829225488692256	-0.7097106948907269
15	0.5	-0.2153365460263388	1.8693817975887916	-0.5900220545508356	-0.2309590809001561	1.8671226030189865	-0.5215266952218097	-0.2176510633378853	1.7192750913624966	-0.5092109485562597	-0.21604588662133611	1.5629265047044856	-0.4904235467987745	-0.2664484056205768	1.5264640274097658	-0.5096884975903386				-0.20385178486908065	1.5504700185425917	-0.48431676729588824	-0.20065680578363476	1.87334184176575	-0.6479303217507306	-0.1871299086936624	1.7230114002457388	-0.6250081669194499	-0.1826678995218251	1.5685981369430404	-0.6074369488814991	-0.22291600109998858	1.526994189995475	-0.6374186943159372	-0.20516038579163126	1.5342720339745934	-0.6561365917163247	-0.18001370302535877	1.5553081202338779	-0.6003800031058601	-0.2026020063331341	2.0535857274988802	-0.6002429397737221	-0.2395489172802572	2.1254606645462557	-0.6209845883046519	-0.2233355499238217	2.049516728129352	-0.515340501700534	-0.22794057852225327	1.9577479850853567	-0.4890916029652389	-0.24418404812476008	1.8788545406747932	-0.4694929967427589	-0.18227692424798617	2.0565427213534435	-0.6853444925637457	-1.4000916018802738	1.8741370823443897	0.5951425157019931	-0.17668591373745782	1.882413557917231	-0.7067170491245641
16	0.5333333333333333	-0.21515040932922436	1.870676195928972	-0.5902907217041603	-0.23089334126300665	1.8670924450196316	-0.5216337458439261	-0.2174250758149243	1.7205493041770603	-0.5096599425751874	-0.2160634366226879	1.5633301472563652	-0.4901033431465264	-0.2627737631449816	1.5315230189225133	-0.5143385706322208				-0.20273174315507503	1.5498441037683988	-0.4810277998852402	-0.2006104608840296	1.8758588171883936	-0.64834423103689	-0.18695196200285963	1.7243939035581246	-0.6253191929078068	-0.18260506477079747	1.568545450704545	-0.6075035785332337	-0.2224832212235988	1.524096607562712	-0.6379263903593707	-0.20511162314146733	1.5338858714662378	-0.6561340098839081	-0.17795969701729072	1.5556741046438067	-0.6026081910057759	-0.20262388293194744	2.0535579946355957	-0.6002021858206052	-0.23957154966643776	2.126592156031752	-0.6215360637208897	-0.22243063638351396	2.049369603625169	-0.5123999461196115	-0.2299973851882092	1.9564932790864678	-0.4869477630612579	-0.2439058409871682	1.8811355903642535	-0.46981160239315867	-0.18230438323647916	2.0563675050532826	-0.6853996372639672	-0.17052451997867976	1.9696165401524168	-0.704555426569803	-0.17989671246151	1.8854792590738716	-0.7080786978337457
